<?xml version="1.0" encoding="UTF-8" standalone="no"?>
<!DOCTYPE svg PUBLIC "-//W3C//DTD SVG 1.1//EN"
 "http://www.w3.org/Graphics/SVG/1.1/DTD/svg11.dtd">
<!-- Generated by graphviz version 8.0.3 (20230416.2022)
 -->
<!-- Title: protodot Pages: 1 -->
<svg width="409pt" height="229pt"
 viewBox="0.00 0.00 409.00 229.00" xmlns="http://www.w3.org/2000/svg" xmlns:xlink="http://www.w3.org/1999/xlink">
<g id="graph0" class="graph" transform="scale(1 1) rotate(0) translate(4 225)">
<title>protodot</title>
<g id="a_graph0"><a xlink:title="sonardyne.api">
<text text-anchor="middle" x="200.5" y="-7.8" font-family="Times New Roman,serif" font-size="14.00">sonardyne.api</text>
</a>
</g>
<!-- Ndee4d9f335c5b863 -->
<g id="node1" class="node">
<title>Ndee4d9f335c5b863</title>
<g id="a_node1"><a xlink:title="sonardyne.api">
<polygon fill="cornsilk" stroke="black" points="374,-221 273,-221 273,-185 380,-185 380,-215 374,-221"/>
<polyline fill="none" stroke="black" points="374,-221 374,-215"/>
<polyline fill="none" stroke="black" points="380,-215 374,-215"/>
<text text-anchor="middle" x="326.5" y="-206" font-family="Ubuntu" font-size="10.00">sonardyne.api</text>
<text text-anchor="middle" x="326.5" y="-195" font-family="Ubuntu" font-size="10.00">config_acoustic.proto</text>
</a>
</g>
</g>
<!-- Nf5a1fc90f8a9e75d -->
<g id="node2" class="node">
<title>Nf5a1fc90f8a9e75d</title>
<g id="a_node2"><a xlink:title="sonardyne.api">
<polygon fill="cornsilk" stroke="black" points="371.5,-167 275.5,-167 275.5,-131 377.5,-131 377.5,-161 371.5,-167"/>
<polyline fill="none" stroke="black" points="371.5,-167 371.5,-161"/>
<polyline fill="none" stroke="black" points="377.5,-161 371.5,-161"/>
<text text-anchor="middle" x="326.5" y="-152" font-family="Ubuntu" font-size="10.00">sonardyne.api</text>
<text text-anchor="middle" x="326.5" y="-141" font-family="Ubuntu" font-size="10.00">config_inertial.proto</text>
</a>
</g>
</g>
<!-- Na4fb6b931548e264 -->
<g id="node3" class="node">
<title>Na4fb6b931548e264</title>
<g id="a_node3"><a xlink:title="sonardyne.api">
<polygon fill="cornsilk" stroke="black" points="395,-113 252,-113 252,-77 401,-77 401,-107 395,-113"/>
<polyline fill="none" stroke="black" points="395,-113 395,-107"/>
<polyline fill="none" stroke="black" points="401,-107 395,-107"/>
<text text-anchor="middle" x="326.5" y="-98" font-family="Ubuntu" font-size="10.00">sonardyne.api</text>
<text text-anchor="middle" x="326.5" y="-87" font-family="Ubuntu" font-size="10.00">config_reference_frames.proto</text>
</a>
</g>
</g>
<!-- N591ab8c79c39a2e8 -->
<g id="node4" class="node">
<title>N591ab8c79c39a2e8</title>
<g id="a_node4"><a xlink:title="sonardyne.api">
<polygon fill="cornsilk" stroke="black" points="387,-59 260,-59 260,-23 393,-23 393,-53 387,-59"/>
<polyline fill="none" stroke="black" points="387,-59 387,-53"/>
<polyline fill="none" stroke="black" points="393,-53 387,-53"/>
<text text-anchor="middle" x="326.5" y="-44" font-family="Ubuntu" font-size="10.00">sonardyne.api</text>
<text text-anchor="middle" x="326.5" y="-33" font-family="Ubuntu" font-size="10.00">observable_primitves.proto</text>
</a>
</g>
</g>
<!-- Nd717ba35d057d5c5 -->
<g id="node5" class="node">
<title>Nd717ba35d057d5c5</title>
<g id="a_node5"><a xlink:title="sonardyne.api">
<polygon fill="cornsilk" stroke="black" points="71,-140 0,-140 0,-104 77,-104 77,-134 71,-140"/>
<polyline fill="none" stroke="black" points="71,-140 71,-134"/>
<polyline fill="none" stroke="black" points="77,-134 71,-134"/>
<text text-anchor="middle" x="38.5" y="-125" font-family="Ubuntu" font-size="10.00">sonardyne.api</text>
<text text-anchor="middle" x="38.5" y="-114" font-family="Ubuntu" font-size="10.00">service.proto</text>
</a>
</g>
</g>
<!-- N07273f2eb97edb97 -->
<g id="node6" class="node">
<title>N07273f2eb97edb97</title>
<g id="a_node6"><a xlink:title="sonardyne.api">
<polygon fill="cornsilk" stroke="black" points="210,-140 113,-140 113,-104 216,-104 216,-134 210,-140"/>
<polyline fill="none" stroke="black" points="210,-140 210,-134"/>
<polyline fill="none" stroke="black" points="216,-134 210,-134"/>
<text text-anchor="middle" x="164.5" y="-125" font-family="Ubuntu" font-size="10.00">sonardyne.api</text>
<text text-anchor="middle" x="164.5" y="-114" font-family="Ubuntu" font-size="10.00">config_service.proto</text>
</a>
</g>
</g>
<!-- Nd717ba35d057d5c5&#45;&gt;N07273f2eb97edb97 -->
<g id="edge1" class="edge">
<title>Nd717ba35d057d5c5&#45;&gt;N07273f2eb97edb97</title>
<path fill="none" stroke="black" d="M77.38,-122C85.1,-122 93.42,-122 101.73,-122"/>
<polygon fill="black" stroke="black" points="101.61,-125.5 111.61,-122 101.61,-118.5 101.61,-125.5"/>
</g>
<!-- N07273f2eb97edb97&#45;&gt;Ndee4d9f335c5b863 -->
<g id="edge2" class="edge">
<title>N07273f2eb97edb97&#45;&gt;Ndee4d9f335c5b863</title>
<path fill="none" stroke="black" d="M191.57,-140.25C208.33,-151.48 230.85,-165.65 252,-176 255.5,-177.71 259.14,-179.38 262.85,-181"/>
<polygon fill="black" stroke="black" points="261.17,-184.51 271.75,-185.12 263.87,-178.04 261.17,-184.51"/>
</g>
<!-- N07273f2eb97edb97&#45;&gt;Nf5a1fc90f8a9e75d -->
<g id="edge3" class="edge">
<title>N07273f2eb97edb97&#45;&gt;Nf5a1fc90f8a9e75d</title>
<path fill="none" stroke="black" d="M216.12,-130.54C231.45,-133.13 248.44,-136 264.38,-138.69"/>
<polygon fill="black" stroke="black" points="263.76,-142.3 274.2,-140.51 264.93,-135.4 263.76,-142.3"/>
</g>
<!-- N07273f2eb97edb97&#45;&gt;Na4fb6b931548e264 -->
<g id="edge4" class="edge">
<title>N07273f2eb97edb97&#45;&gt;Na4fb6b931548e264</title>
<path fill="none" stroke="black" d="M216.12,-113.46C224.04,-112.12 232.41,-110.71 240.84,-109.29"/>
<polygon fill="black" stroke="black" points="241.25,-112.6 250.53,-107.48 240.09,-105.7 241.25,-112.6"/>
</g>
<!-- N07273f2eb97edb97&#45;&gt;N591ab8c79c39a2e8 -->
<g id="edge5" class="edge">
<title>N07273f2eb97edb97&#45;&gt;N591ab8c79c39a2e8</title>
<path fill="none" stroke="black" d="M191.57,-103.75C208.33,-92.52 230.85,-78.35 252,-68 255.11,-66.48 258.34,-64.99 261.62,-63.54"/>
<polygon fill="black" stroke="black" points="262.71,-66.46 270.57,-59.35 259.99,-60.01 262.71,-66.46"/>
</g>
</g>
</svg>
