<?xml version="1.0" encoding="UTF-8" standalone="no"?>
<!DOCTYPE svg PUBLIC "-//W3C//DTD SVG 1.1//EN"
 "http://www.w3.org/Graphics/SVG/1.1/DTD/svg11.dtd">
<!-- Generated by graphviz version 8.0.3 (20230416.2022)
 -->
<!-- Title: protodot Pages: 1 -->
<svg width="890pt" height="365pt"
 viewBox="0.00 0.00 890.00 365.00" xmlns="http://www.w3.org/2000/svg" xmlns:xlink="http://www.w3.org/1999/xlink">
<g id="graph0" class="graph" transform="scale(1 1) rotate(0) translate(4 361)">
<title>protodot</title>
<g id="a_graph0"><a xlink:title="sonardyne.api">
<text text-anchor="middle" x="441" y="-7.8" font-family="Times New Roman,serif" font-size="14.00">sonardyne.api</text>
</a>
</g>
<!-- Node_Ja_101 -->
<g id="node1" class="node">
<title>Node_Ja_101</title>
<g id="a_node1"><a xlink:title="sonardyne.api.InertialConfig">
<polygon fill="#fffaf0" stroke="none" points="8,-199 8,-276 332,-276 332,-199 8,-199"/>
<polygon fill="#e31a1c" stroke="none" points="9,-260 9,-275 331,-275 331,-260 9,-260"/>
<text text-anchor="start" x="263" y="-266" font-family="Ubuntu" font-weight="bold" font-size="10.00">InertialConfig</text>
<text text-anchor="start" x="15" y="-250" font-family="Ubuntu" font-size="10.00">100</text>
<text text-anchor="start" x="35" y="-250" font-family="Ubuntu" font-size="10.00">reset_configuration</text>
<polygon fill="#fb9a99" stroke="none" points="167,-245 167,-260 331,-260 331,-245 167,-245"/>
<text text-anchor="start" x="235" y="-251" font-family="Ubuntu" font-weight="bold" font-size="10.00">ResetConfiguration</text>
<text text-anchor="start" x="15" y="-235" font-family="Ubuntu" font-size="10.00">101</text>
<text text-anchor="start" x="35" y="-235" font-family="Ubuntu" font-size="10.00">aiding_configuration</text>
<polygon fill="#fb9a99" stroke="none" points="167,-230 167,-245 331,-245 331,-230 167,-230"/>
<text text-anchor="start" x="233" y="-236" font-family="Ubuntu" font-weight="bold" font-size="10.00">AidingConfiguration</text>
<text text-anchor="start" x="15" y="-220" font-family="Ubuntu" font-size="10.00">102</text>
<text text-anchor="start" x="35" y="-220" font-family="Ubuntu" font-size="10.00">sound_velocity_configuration</text>
<polygon fill="#fb9a99" stroke="none" points="167,-215 167,-230 331,-230 331,-215 167,-215"/>
<text text-anchor="start" x="194" y="-221" font-family="Ubuntu" font-weight="bold" font-size="10.00">SoundVelocityConfiguration</text>
<text text-anchor="start" x="15" y="-205" font-family="Ubuntu" font-size="10.00">103</text>
<text text-anchor="start" x="35" y="-205" font-family="Ubuntu" font-size="10.00">doppler_velocity_configuration</text>
<polygon fill="#fb9a99" stroke="none" points="167,-200 167,-215 331,-215 331,-200 167,-200"/>
<text text-anchor="start" x="169" y="-206" font-family="Ubuntu" font-weight="bold" font-size="10.00">DopplerVelocityLogConfiguration</text>
<polygon fill="none" stroke="black" points="8,-199 8,-276 332,-276 332,-199 8,-199"/>
</a>
</g>
</g>
<!-- Node_Ja_107 -->
<g id="node3" class="node">
<title>Node_Ja_107</title>
<g id="a_node3"><a xlink:title="sonardyne.api.SoundVelocityConfiguration">
<polygon fill="#fffaf0" stroke="none" points="384,-151 384,-198 581,-198 581,-151 384,-151"/>
<polygon fill="#e31a1c" stroke="none" points="385,-182 385,-197 580,-197 580,-182 385,-182"/>
<text text-anchor="start" x="443" y="-188" font-family="Ubuntu" font-weight="bold" font-size="10.00">SoundVelocityConfiguration</text>
<text text-anchor="start" x="391" y="-172" font-family="Ubuntu" font-size="10.00">1</text>
<text text-anchor="start" x="401" y="-172" font-family="Ubuntu" font-size="10.00">sound_velocity_type</text>
<polygon fill="#b2df8a" stroke="none" points="497,-167 497,-182 580,-182 580,-167 497,-167"/>
<text text-anchor="start" x="499" y="-173" font-family="Ubuntu" text-decoration="underline" font-size="10.00">SOUND_VELOCITY</text>
<text text-anchor="start" x="391" y="-157" font-family="Ubuntu" font-size="10.00">2</text>
<text text-anchor="start" x="401" y="-157" font-family="Ubuntu" font-size="10.00">manual_salinity_value</text>
<polygon fill="#a6cee3" stroke="none" points="497,-152 497,-167 580,-167 580,-152 497,-152"/>
<text text-anchor="start" x="549" y="-158" font-family="Ubuntu" font-style="italic" font-size="10.00">double</text>
<polygon fill="none" stroke="black" points="384,-151 384,-198 581,-198 581,-151 384,-151"/>
</a>
</g>
</g>
<!-- Node_Ja_101&#45;&gt;Node_Ja_107 -->
<g id="edge1" class="edge">
<title>Node_Ja_101:e&#45;&gt;Node_Ja_107:header</title>
<g id="a_edge1"><a xlink:title="Ja_101 &#45;&#45;&gt; Ja_107">
<path fill="none" stroke="#000000" d="M332,-222.5C354.94,-222.5 356.48,-199.01 372.73,-191.67"/>
<polygon fill="#000000" stroke="#000000" points="373.39,-194.9 382.5,-189.5 372.01,-188.04 373.39,-194.9"/>
</a>
</g>
</g>
<!-- Node_Ja_102 -->
<g id="node4" class="node">
<title>Node_Ja_102</title>
<g id="a_node4"><a xlink:title="sonardyne.api.ResetConfiguration">
<polygon fill="#fffaf0" stroke="none" points="419.5,-315.5 419.5,-347.5 545.5,-347.5 545.5,-315.5 419.5,-315.5"/>
<polygon fill="#e31a1c" stroke="none" points="420.5,-331.5 420.5,-346.5 544.5,-346.5 544.5,-331.5 420.5,-331.5"/>
<text text-anchor="start" x="448.5" y="-337.5" font-family="Ubuntu" font-weight="bold" font-size="10.00">ResetConfiguration</text>
<text text-anchor="start" x="426.5" y="-321.5" font-family="Ubuntu" font-size="10.00">1</text>
<text text-anchor="start" x="436.5" y="-321.5" font-family="Ubuntu" font-size="10.00">reset_type</text>
<polygon fill="#b2df8a" stroke="none" points="484.5,-316.5 484.5,-331.5 544.5,-331.5 544.5,-316.5 484.5,-316.5"/>
<text text-anchor="start" x="486.5" y="-322.5" font-family="Ubuntu" text-decoration="underline" font-size="10.00">RESET_TYPE</text>
<polygon fill="none" stroke="black" points="419.5,-315.5 419.5,-347.5 545.5,-347.5 545.5,-315.5 419.5,-315.5"/>
</a>
</g>
</g>
<!-- Node_Ja_101&#45;&gt;Node_Ja_102 -->
<g id="edge6" class="edge">
<title>Node_Ja_101:e&#45;&gt;Node_Ja_102:header</title>
<g id="a_edge6"><a xlink:title="Ja_101 &#45;&#45;&gt; Ja_102">
<path fill="none" stroke="#000000" d="M332,-252.5C382.88,-252.5 367.46,-327.38 408.76,-338.2"/>
<polygon fill="#000000" stroke="#000000" points="408.15,-341.78 418.5,-339.5 408.99,-334.83 408.15,-341.78"/>
</a>
</g>
</g>
<!-- Node_Ja_109 -->
<g id="node5" class="node">
<title>Node_Ja_109</title>
<g id="a_node5"><a xlink:title="sonardyne.api.DopplerVelocityLogConfiguration">
<polygon fill="#fffaf0" stroke="none" points="399.5,-63 399.5,-110 565.5,-110 565.5,-63 399.5,-63"/>
<polygon fill="#e31a1c" stroke="none" points="400.5,-94 400.5,-109 564.5,-109 564.5,-94 400.5,-94"/>
<text text-anchor="start" x="402.5" y="-100" font-family="Ubuntu" font-weight="bold" font-size="10.00">DopplerVelocityLogConfiguration</text>
<text text-anchor="start" x="444.5" y="-84" font-family="Ubuntu" font-size="10.00">1</text>
<text text-anchor="start" x="454.5" y="-84" font-family="Ubuntu" font-size="10.00">trigger_type</text>
<polygon fill="#b2df8a" stroke="none" points="514.5,-79 514.5,-94 564.5,-94 564.5,-79 514.5,-79"/>
<text text-anchor="start" x="523.5" y="-85" font-family="Ubuntu" text-decoration="underline" font-size="10.00">TRIGGER</text>
<text text-anchor="start" x="444.5" y="-69" font-family="Ubuntu" font-size="10.00">2</text>
<text text-anchor="start" x="454.5" y="-69" font-family="Ubuntu" font-size="10.00">enable_dvl</text>
<polygon fill="#a6cee3" stroke="none" points="514.5,-64 514.5,-79 564.5,-79 564.5,-64 514.5,-64"/>
<text text-anchor="start" x="543.5" y="-70" font-family="Ubuntu" font-style="italic" font-size="10.00">bool</text>
<polygon fill="none" stroke="black" points="399.5,-63 399.5,-110 565.5,-110 565.5,-63 399.5,-63"/>
</a>
</g>
</g>
<!-- Node_Ja_101&#45;&gt;Node_Ja_109 -->
<g id="edge7" class="edge">
<title>Node_Ja_101:e&#45;&gt;Node_Ja_109:header</title>
<g id="a_edge7"><a xlink:title="Ja_101 &#45;&#45;&gt; Ja_109">
<path fill="none" stroke="#000000" d="M332,-207.5C383.71,-207.5 349.66,-116.65 388.64,-103.17"/>
<polygon fill="#000000" stroke="#000000" points="389.15,-106.47 398.5,-101.5 388.09,-99.56 389.15,-106.47"/>
</a>
</g>
</g>
<!-- Node_Ja_104 -->
<g id="node6" class="node">
<title>Node_Ja_104</title>
<g id="a_node6"><a xlink:title="sonardyne.api.AidingConfiguration">
<polygon fill="#fffaf0" stroke="none" points="404.5,-246.5 404.5,-278.5 560.5,-278.5 560.5,-246.5 404.5,-246.5"/>
<polygon fill="#e31a1c" stroke="none" points="405.5,-262.5 405.5,-277.5 559.5,-277.5 559.5,-262.5 405.5,-262.5"/>
<text text-anchor="start" x="461.5" y="-268.5" font-family="Ubuntu" font-weight="bold" font-size="10.00">AidingConfiguration</text>
<text text-anchor="start" x="407.5" y="-252.5" font-family="Ubuntu" font-size="10.00">[...]</text>
<text text-anchor="start" x="428.5" y="-252.5" font-family="Ubuntu" font-size="10.00">1</text>
<text text-anchor="start" x="438.5" y="-252.5" font-family="Ubuntu" font-size="10.00">aiding_states</text>
<polygon fill="#fb9a99" stroke="none" points="497.5,-247.5 497.5,-262.5 559.5,-262.5 559.5,-247.5 497.5,-247.5"/>
<text text-anchor="start" x="499.5" y="-253.5" font-family="Ubuntu" font-weight="bold" font-size="10.00">AidingState</text>
<polygon fill="none" stroke="black" points="404.5,-246.5 404.5,-278.5 560.5,-278.5 560.5,-246.5 404.5,-246.5"/>
</a>
</g>
</g>
<!-- Node_Ja_101&#45;&gt;Node_Ja_104 -->
<g id="edge2" class="edge">
<title>Node_Ja_101:e&#45;&gt;Node_Ja_104:header</title>
<g id="a_edge2"><a xlink:title="Ja_101 &#45;&#45;&gt; Ja_104">
<path fill="none" stroke="#000000" d="M332,-237.5C363.39,-237.5 368.28,-263.45 393.67,-269.33"/>
<polygon fill="#000000" stroke="#000000" points="393.18,-272.9 403.5,-270.5 393.94,-265.94 393.18,-272.9"/>
</a>
</g>
</g>
<!-- Node_Ja_106 -->
<g id="node2" class="node">
<title>Node_Ja_106</title>
<g id="a_node2"><a xlink:title="sonardyne.api.AidingConfiguration.AidingState">
<polygon fill="#fffaf0" stroke="none" points="644.5,-233 644.5,-280 739.5,-280 739.5,-233 644.5,-233"/>
<polygon fill="#e31a1c" stroke="none" points="645.5,-264 645.5,-279 738.5,-279 738.5,-264 645.5,-264"/>
<text text-anchor="start" x="678.5" y="-270" font-family="Ubuntu" font-weight="bold" font-size="10.00">AidingState</text>
<text text-anchor="start" x="651.5" y="-254" font-family="Ubuntu" font-size="10.00">1</text>
<text text-anchor="start" x="661.5" y="-254" font-family="Ubuntu" font-size="10.00">source</text>
<polygon fill="#b2df8a" stroke="none" points="697.5,-249 697.5,-264 738.5,-264 738.5,-249 697.5,-249"/>
<text text-anchor="start" x="699.5" y="-255" font-family="Ubuntu" text-decoration="underline" font-size="10.00">SOURCE</text>
<text text-anchor="start" x="651.5" y="-239" font-family="Ubuntu" font-size="10.00">2</text>
<text text-anchor="start" x="661.5" y="-239" font-family="Ubuntu" font-size="10.00">enables</text>
<polygon fill="#a6cee3" stroke="none" points="697.5,-234 697.5,-249 738.5,-249 738.5,-234 697.5,-234"/>
<text text-anchor="start" x="717.5" y="-240" font-family="Ubuntu" font-style="italic" font-size="10.00">bool</text>
<polygon fill="none" stroke="black" points="644.5,-233 644.5,-280 739.5,-280 739.5,-233 644.5,-233"/>
</a>
</g>
</g>
<!-- Node_Ja_105 -->
<g id="node10" class="node">
<title>Node_Ja_105</title>
<g id="a_node10"><a xlink:title="SOURCE">
<polygon fill="#b2df8a" stroke="none" points="803,-225.5 803,-287.5 874,-287.5 874,-225.5 803,-225.5"/>
<polygon fill="#33a02c" stroke="none" points="804,-271.5 804,-286.5 873,-286.5 873,-271.5 804,-271.5"/>
<text text-anchor="start" x="806" y="-277.5" font-family="Ubuntu" font-size="10.00">enum </text>
<text text-anchor="start" x="834" y="-277.5" font-family="Ubuntu" font-weight="bold" font-size="10.00">SOURCE</text>
<polygon fill="#b2df8a" stroke="none" points="804,-256.5 804,-271.5 848,-271.5 848,-256.5 804,-256.5"/>
<text text-anchor="start" x="806" y="-261.5" font-family="Ubuntu" font-size="10.00">GNSS</text>
<polygon fill="#b2df8a" stroke="none" points="848,-256.5 848,-271.5 873,-271.5 873,-256.5 848,-256.5"/>
<text text-anchor="start" x="850" y="-261.5" font-family="Ubuntu" font-size="10.00">0</text>
<polygon fill="#b2df8a" stroke="none" points="804,-241.5 804,-256.5 848,-256.5 848,-241.5 804,-241.5"/>
<text text-anchor="start" x="806" y="-246.5" font-family="Ubuntu" font-size="10.00">XPOS</text>
<polygon fill="#b2df8a" stroke="none" points="848,-241.5 848,-256.5 873,-256.5 873,-241.5 848,-241.5"/>
<text text-anchor="start" x="850" y="-246.5" font-family="Ubuntu" font-size="10.00">1</text>
<polygon fill="#b2df8a" stroke="none" points="804,-226.5 804,-241.5 848,-241.5 848,-226.5 804,-226.5"/>
<text text-anchor="start" x="806" y="-231.5" font-family="Ubuntu" font-size="10.00">USBL</text>
<polygon fill="#b2df8a" stroke="none" points="848,-226.5 848,-241.5 873,-241.5 873,-226.5 848,-226.5"/>
<text text-anchor="start" x="850" y="-231.5" font-family="Ubuntu" font-size="10.00">2</text>
<polygon fill="none" stroke="black" points="803,-225.5 803,-287.5 874,-287.5 874,-225.5 803,-225.5"/>
</a>
</g>
</g>
<!-- Node_Ja_106&#45;&gt;Node_Ja_105 -->
<g id="edge5" class="edge">
<title>Node_Ja_106:e&#45;&gt;Node_Ja_105</title>
<g id="a_edge5"><a xlink:title="Ja_106 &#45;&#45;&gt; Ja_105">
<path fill="none" stroke="#008000" d="M740,-256.5C754.43,-256.5 770.07,-256.5 784.5,-256.5"/>
<polygon fill="#008000" stroke="#008000" points="784.27,-260 794.27,-256.5 784.27,-253 784.27,-260"/>
</a>
</g>
</g>
<!-- Node_Ja_108 -->
<g id="node7" class="node">
<title>Node_Ja_108</title>
<g id="a_node7"><a xlink:title="SOUND_VELOCITY">
<polygon fill="#b2df8a" stroke="none" points="633,-130 633,-207 751,-207 751,-130 633,-130"/>
<polygon fill="#33a02c" stroke="none" points="634,-191 634,-206 750,-206 750,-191 634,-191"/>
<text text-anchor="start" x="636" y="-197" font-family="Ubuntu" font-size="10.00">enum </text>
<text text-anchor="start" x="664" y="-197" font-family="Ubuntu" font-weight="bold" font-size="10.00">SOUND_VELOCITY</text>
<polygon fill="#b2df8a" stroke="none" points="634,-176 634,-191 733,-191 733,-176 634,-176"/>
<text text-anchor="start" x="636" y="-181" font-family="Ubuntu" font-size="10.00">NONE</text>
<polygon fill="#b2df8a" stroke="none" points="733,-176 733,-191 750,-191 750,-176 733,-176"/>
<text text-anchor="start" x="735" y="-181" font-family="Ubuntu" font-size="10.00">0</text>
<polygon fill="#b2df8a" stroke="none" points="634,-161 634,-176 733,-176 733,-161 634,-161"/>
<text text-anchor="start" x="636" y="-166" font-family="Ubuntu" font-size="10.00">EXTERNAL</text>
<polygon fill="#b2df8a" stroke="none" points="733,-161 733,-176 750,-176 750,-161 733,-161"/>
<text text-anchor="start" x="735" y="-166" font-family="Ubuntu" font-size="10.00">1</text>
<polygon fill="#b2df8a" stroke="none" points="634,-146 634,-161 733,-161 733,-146 634,-146"/>
<text text-anchor="start" x="636" y="-151" font-family="Ubuntu" font-size="10.00">INTERNAL_SALINITY</text>
<polygon fill="#b2df8a" stroke="none" points="733,-146 733,-161 750,-161 750,-146 733,-146"/>
<text text-anchor="start" x="735" y="-151" font-family="Ubuntu" font-size="10.00">2</text>
<polygon fill="#b2df8a" stroke="none" points="634,-131 634,-146 733,-146 733,-131 634,-131"/>
<text text-anchor="start" x="636" y="-136" font-family="Ubuntu" font-size="10.00">INTERNAL_MANUAL</text>
<polygon fill="#b2df8a" stroke="none" points="733,-131 733,-146 750,-146 750,-131 733,-131"/>
<text text-anchor="start" x="735" y="-136" font-family="Ubuntu" font-size="10.00">3</text>
<polygon fill="none" stroke="black" points="633,-130 633,-207 751,-207 751,-130 633,-130"/>
</a>
</g>
</g>
<!-- Node_Ja_107&#45;&gt;Node_Ja_108 -->
<g id="edge8" class="edge">
<title>Node_Ja_107:e&#45;&gt;Node_Ja_108</title>
<g id="a_edge8"><a xlink:title="Ja_107 &#45;&#45;&gt; Ja_108">
<path fill="none" stroke="#008000" d="M581.5,-174.5C592.07,-174.5 603.2,-174.22 614.15,-173.78"/>
<polygon fill="#008000" stroke="#008000" points="614.19,-177.23 624.02,-173.29 613.87,-170.24 614.19,-177.23"/>
</a>
</g>
</g>
<!-- Node_Ja_103 -->
<g id="node8" class="node">
<title>Node_Ja_103</title>
<g id="a_node8"><a xlink:title="RESET_TYPE">
<polygon fill="#b2df8a" stroke="none" points="646,-306 646,-353 738,-353 738,-306 646,-306"/>
<polygon fill="#33a02c" stroke="none" points="647,-337 647,-352 737,-352 737,-337 647,-337"/>
<text text-anchor="start" x="649" y="-343" font-family="Ubuntu" font-size="10.00">enum </text>
<text text-anchor="start" x="677" y="-343" font-family="Ubuntu" font-weight="bold" font-size="10.00">RESET_TYPE</text>
<polygon fill="#b2df8a" stroke="none" points="647,-322 647,-337 718,-337 718,-322 647,-322"/>
<text text-anchor="start" x="649" y="-327" font-family="Ubuntu" font-size="10.00">SOFT_RESET</text>
<polygon fill="#b2df8a" stroke="none" points="718,-322 718,-337 737,-337 737,-322 718,-322"/>
<text text-anchor="start" x="720" y="-327" font-family="Ubuntu" font-size="10.00">0</text>
<polygon fill="#b2df8a" stroke="none" points="647,-307 647,-322 718,-322 718,-307 647,-307"/>
<text text-anchor="start" x="649" y="-312" font-family="Ubuntu" font-size="10.00">HARD_RESET</text>
<polygon fill="#b2df8a" stroke="none" points="718,-307 718,-322 737,-322 737,-307 718,-307"/>
<text text-anchor="start" x="720" y="-312" font-family="Ubuntu" font-size="10.00">1</text>
<polygon fill="none" stroke="black" points="646,-306 646,-353 738,-353 738,-306 646,-306"/>
</a>
</g>
</g>
<!-- Node_Ja_102&#45;&gt;Node_Ja_103 -->
<g id="edge3" class="edge">
<title>Node_Ja_102:e&#45;&gt;Node_Ja_103</title>
<g id="a_edge3"><a xlink:title="Ja_102 &#45;&#45;&gt; Ja_103">
<path fill="none" stroke="#008000" d="M545.5,-323.5C572.26,-323.5 601.76,-324.53 627.16,-325.73"/>
<polygon fill="#008000" stroke="#008000" points="626.99,-329.27 637.15,-326.27 627.34,-322.28 626.99,-329.27"/>
</a>
</g>
</g>
<!-- Node_Ja_110 -->
<g id="node9" class="node">
<title>Node_Ja_110</title>
<g id="a_node9"><a xlink:title="TRIGGER">
<polygon fill="#b2df8a" stroke="none" points="645.5,-27 645.5,-104 738.5,-104 738.5,-27 645.5,-27"/>
<polygon fill="#33a02c" stroke="none" points="646.5,-88 646.5,-103 737.5,-103 737.5,-88 646.5,-88"/>
<text text-anchor="start" x="667.5" y="-94" font-family="Ubuntu" font-size="10.00">enum </text>
<text text-anchor="start" x="695.5" y="-94" font-family="Ubuntu" font-weight="bold" font-size="10.00">TRIGGER</text>
<polygon fill="#b2df8a" stroke="none" points="646.5,-73 646.5,-88 727.5,-88 727.5,-73 646.5,-73"/>
<text text-anchor="start" x="648.5" y="-78" font-family="Ubuntu" font-size="10.00">NONE</text>
<polygon fill="#b2df8a" stroke="none" points="727.5,-73 727.5,-88 737.5,-88 737.5,-73 727.5,-73"/>
<text text-anchor="start" x="729.5" y="-78" font-family="Ubuntu" font-size="10.00">0</text>
<polygon fill="#b2df8a" stroke="none" points="646.5,-58 646.5,-73 727.5,-73 727.5,-58 646.5,-58"/>
<text text-anchor="start" x="648.5" y="-63" font-family="Ubuntu" font-size="10.00">INTERNAL</text>
<polygon fill="#b2df8a" stroke="none" points="727.5,-58 727.5,-73 737.5,-73 737.5,-58 727.5,-58"/>
<text text-anchor="start" x="729.5" y="-63" font-family="Ubuntu" font-size="10.00">1</text>
<polygon fill="#b2df8a" stroke="none" points="646.5,-43 646.5,-58 727.5,-58 727.5,-43 646.5,-43"/>
<text text-anchor="start" x="648.5" y="-48" font-family="Ubuntu" font-size="10.00">EXTERNAL_TRIG1</text>
<polygon fill="#b2df8a" stroke="none" points="727.5,-43 727.5,-58 737.5,-58 737.5,-43 727.5,-43"/>
<text text-anchor="start" x="729.5" y="-48" font-family="Ubuntu" font-size="10.00">2</text>
<polygon fill="#b2df8a" stroke="none" points="646.5,-28 646.5,-43 727.5,-43 727.5,-28 646.5,-28"/>
<text text-anchor="start" x="648.5" y="-33" font-family="Ubuntu" font-size="10.00">EXTERNAL_TRIG2</text>
<polygon fill="#b2df8a" stroke="none" points="727.5,-28 727.5,-43 737.5,-43 737.5,-28 727.5,-28"/>
<text text-anchor="start" x="729.5" y="-33" font-family="Ubuntu" font-size="10.00">3</text>
<polygon fill="none" stroke="black" points="645.5,-27 645.5,-104 738.5,-104 738.5,-27 645.5,-27"/>
</a>
</g>
</g>
<!-- Node_Ja_109&#45;&gt;Node_Ja_110 -->
<g id="edge4" class="edge">
<title>Node_Ja_109:e&#45;&gt;Node_Ja_110</title>
<g id="a_edge4"><a xlink:title="Ja_109 &#45;&#45;&gt; Ja_110">
<path fill="none" stroke="#008000" d="M565.5,-86.5C585.63,-86.5 607.33,-83.84 626.93,-80.41"/>
<polygon fill="#008000" stroke="#008000" points="627.39,-83.7 636.59,-78.44 626.12,-76.82 627.39,-83.7"/>
</a>
</g>
</g>
<!-- Node_Ja_104&#45;&gt;Node_Ja_106 -->
<g id="edge9" class="edge">
<title>Node_Ja_104:e&#45;&gt;Node_Ja_106:header</title>
<g id="a_edge9"><a xlink:title="Ja_104 &#45;&#45;&gt; Ja_106">
<path fill="none" stroke="#000000" d="M560.5,-254.5C594.53,-254.5 604.24,-268.22 633.33,-271.01"/>
<polygon fill="#000000" stroke="#000000" points="632.85,-274.54 643,-271.5 633.17,-267.54 632.85,-274.54"/>
</a>
</g>
</g>
</g>
</svg>
