<svg width="747" height="143" viewBox="0 0 747 143" fill="none" xmlns="http://www.w3.org/2000/svg">
<g clip-path="url(#clip0_431_3395)">
<mask id="mask0_431_3395" style="mask-type:luminance" maskUnits="userSpaceOnUse" x="0" y="0" width="151" height="143">
<path d="M50.5027 0.248016C47.7011 0.248016 45.1145 0.616013 42.3667 1.04668C14.9401 5.57202 0 27.1504 0 60.3441C0 80.4198 8.72552 114.547 8.72552 114.547H8.73021C8.83593 115.098 9.31719 115.513 9.89688 115.513C10.4937 115.513 10.9823 115.076 11.0708 114.506L22.0932 31.6323C22.0932 31.6307 22.0932 31.628 22.0932 31.628C22.0932 30.9406 22.6489 30.3832 23.3349 30.3832C24.0213 30.3832 24.5776 30.9406 24.5776 31.628C24.5776 31.628 24.5776 31.6307 24.5776 31.6323L31.9385 141.409C31.9385 142.15 32.5396 142.752 33.2823 142.752C34.0255 142.752 34.6255 142.15 34.6255 141.408L46.4172 31.4994H46.4213C46.4869 30.8728 47.0088 30.3832 47.6505 30.3832C48.2735 30.3832 48.7855 30.8442 48.8745 31.4395H48.876L48.8776 31.4588C48.8844 31.5151 48.8948 31.5682 48.8948 31.628C48.8948 31.6411 48.8907 31.6531 48.8907 31.6687L55.6412 141.384C55.6401 141.399 55.6375 141.411 55.6375 141.424C55.6375 142.133 56.2136 142.708 56.9213 142.708C57.6307 142.708 58.2052 142.133 58.2052 141.424L70.0469 31.6567C70.0469 31.6463 70.0443 31.6375 70.0443 31.628C70.0443 30.9406 70.6005 30.3832 71.2864 30.3832C71.9719 30.3832 72.5292 30.9406 72.5292 31.628C72.5292 31.6567 72.5213 31.687 72.5203 31.7156C72.8792 37.0708 79.8615 141.408 79.8615 141.432C79.8615 142.145 80.4391 142.721 81.1505 142.721C81.8615 142.721 82.4391 142.145 82.4391 141.432C82.4391 141.426 93.4948 32.5968 93.5917 31.6427C93.5907 31.6323 93.588 31.6218 93.588 31.6114C93.588 30.9354 94.1333 30.3911 94.8079 30.3911C95.4823 30.3911 96.0307 30.9354 96.0307 31.6114C96.0307 31.6176 96.0281 31.6255 96.0281 31.6323H96.0307L103.36 141.404C103.36 141.413 103.359 141.42 103.359 141.426C103.359 142.145 103.937 142.721 104.649 142.721C105.341 142.721 105.901 142.178 105.935 141.492H105.939L117.021 31.6323H117.024C117.024 31.6255 117.021 31.6176 117.021 31.6114C117.021 30.9354 117.57 30.3911 118.243 30.3911C118.916 30.3911 119.464 30.9354 119.464 31.6114C119.464 31.6176 119.461 31.6255 119.461 31.6323H119.464L126.568 114.934H126.576C126.576 115.255 126.835 115.513 127.156 115.513C127.477 115.513 127.736 115.255 127.736 114.934H127.739C127.739 114.934 132.008 89.6151 134.82 80.563C139.101 66.7818 150.397 58.0343 150.397 58.0343C128.875 39.8223 124.267 12.266 123.619 0.248016H50.5027Z" fill="white"/>
</mask>
<g mask="url(#mask0_431_3395)">
<path d="M50.5027 0.248016C47.7011 0.248016 45.1145 0.616013 42.3667 1.04668C14.9401 5.57202 0 27.1504 0 60.3441C0 80.4198 8.72552 114.547 8.72552 114.547H8.73021C8.83593 115.098 9.31719 115.513 9.89688 115.513C10.4937 115.513 10.9823 115.076 11.0708 114.506L22.0932 31.6323C22.0932 31.6307 22.0932 31.628 22.0932 31.628C22.0932 30.9406 22.6489 30.3832 23.3349 30.3832C24.0213 30.3832 24.5776 30.9406 24.5776 31.628C24.5776 31.628 24.5776 31.6307 24.5776 31.6323L31.9385 141.409C31.9385 142.15 32.5396 142.752 33.2823 142.752C34.0255 142.752 34.6255 142.15 34.6255 141.408L46.4172 31.4994H46.4213C46.4869 30.8728 47.0088 30.3832 47.6505 30.3832C48.2735 30.3832 48.7855 30.8442 48.8745 31.4395H48.876L48.8776 31.4588C48.8844 31.5151 48.8948 31.5682 48.8948 31.628C48.8948 31.6411 48.8907 31.6531 48.8907 31.6687L55.6412 141.384C55.6401 141.399 55.6375 141.411 55.6375 141.424C55.6375 142.133 56.2136 142.708 56.9213 142.708C57.6307 142.708 58.2052 142.133 58.2052 141.424L70.0469 31.6567C70.0469 31.6463 70.0443 31.6375 70.0443 31.628C70.0443 30.9406 70.6005 30.3832 71.2864 30.3832C71.9719 30.3832 72.5292 30.9406 72.5292 31.628C72.5292 31.6567 72.5213 31.687 72.5203 31.7156C72.8792 37.0708 79.8615 141.408 79.8615 141.432C79.8615 142.145 80.4391 142.721 81.1505 142.721C81.8615 142.721 82.4391 142.145 82.4391 141.432C82.4391 141.426 93.4948 32.5968 93.5917 31.6427C93.5907 31.6323 93.588 31.6218 93.588 31.6114C93.588 30.9354 94.1333 30.3911 94.8079 30.3911C95.4823 30.3911 96.0307 30.9354 96.0307 31.6114C96.0307 31.6176 96.0281 31.6255 96.0281 31.6323H96.0307L103.36 141.404C103.36 141.413 103.359 141.42 103.359 141.426C103.359 142.145 103.937 142.721 104.649 142.721C105.341 142.721 105.901 142.178 105.935 141.492H105.939L117.021 31.6323H117.024C117.024 31.6255 117.021 31.6176 117.021 31.6114C117.021 30.9354 117.57 30.3911 118.243 30.3911C118.916 30.3911 119.464 30.9354 119.464 31.6114C119.464 31.6176 119.461 31.6255 119.461 31.6323H119.464L126.568 114.934H126.576C126.576 115.255 126.835 115.513 127.156 115.513C127.477 115.513 127.736 115.255 127.736 114.934H127.739C127.739 114.934 132.008 89.6151 134.82 80.563C139.101 66.7818 150.397 58.0343 150.397 58.0343C128.875 39.8223 124.267 12.266 123.619 0.248016H50.5027Z" fill="white"/>
</g>
<g clip-path="url(#clip1_431_3395)">
<path d="M416.559 72.5379C414.515 78.1588 409.303 81.5146 402.615 81.5146C396.019 81.5146 391.756 78.2682 391.756 73.2447C391.756 67.9114 395.72 65.2083 403.539 65.2083H416.599L416.559 72.5379ZM433.334 91.5302V56.2827C433.334 38.1718 423.467 28.9895 404.004 28.9895C394.174 28.9895 384.504 31.6551 377.99 36.1395L383.851 47.6603C388.452 44.2551 395.155 42.163 401.572 42.163C413.992 42.163 416.599 49.2682 416.599 55.2291V55.8958H401.572C384.506 55.8958 375.484 62.1786 375.484 74.064C375.484 85.0703 384.572 92.465 398.096 92.465C406.911 92.465 413.279 89.5458 416.515 84.0207L417.758 81.901V91.5302H433.334Z" fill="white"/>
<path d="M476.766 44.2682C477.952 44.2682 478.97 44.3488 480.147 44.4442L480.192 44.4468V28.9947C471 29.137 463.943 32.2291 459.756 37.9583L458.551 39.6083V29.926H442.454V91.5302H459.37V62.4832C459.37 50.7369 465.547 44.2682 476.766 44.2682Z" fill="white"/>
<path d="M514.952 78.8244C505.38 78.8244 498.949 71.552 498.949 60.728C498.949 49.9036 505.38 42.6302 514.952 42.6302C524.309 42.6302 530.844 50.0728 530.844 60.728C530.844 71.3827 524.309 78.8244 514.952 78.8244ZM546.515 91.5302V6.06136H530.511V37.754L529.333 36.3567C525.276 31.5364 519.265 28.9895 511.952 28.9895C494.744 28.9895 482.724 42.0406 482.724 60.728C482.724 79.414 494.744 92.465 511.952 92.465C519.843 92.465 525.948 89.7958 530.099 84.5302L531.289 83.0198V91.5302H546.515Z" fill="white"/>
<path d="M652.22 43.4494C657.759 43.4494 664.364 46.1431 664.364 58.9739V91.5302H679.455V56.1655C679.455 38.8947 671.14 28.9895 656.643 28.9895C649.163 28.9895 642.691 31.8531 638.417 37.052L637.235 38.4911V29.926H622.881V91.5302H637.972V61.078C637.972 50.0406 643.299 43.4494 652.22 43.4494Z" fill="white"/>
<path d="M700.355 55.1302C701.632 46.6979 707.547 41.4598 715.795 41.4598C723.83 41.4598 729.847 46.8255 731.123 55.1275L731.242 55.8958H700.239L700.355 55.1302ZM717.906 92.465C728.208 92.465 736.21 89.2682 741.698 82.9608L733.315 73.3922C729.091 77.387 724.444 79.176 718.351 79.176C708.979 79.176 702.336 74.2551 700.584 66.013L700.414 65.2083H745.851C745.872 64.9468 745.896 64.677 745.92 64.4026C746.026 63.1864 746.135 61.9296 746.135 60.9608C746.135 42.137 733.612 28.9895 715.683 28.9895C697.588 28.9895 684.455 42.3374 684.455 60.728C684.455 79.414 698.21 92.465 717.906 92.465Z" fill="white"/>
<path d="M270.7 78.8244C260.935 78.8244 254.373 71.552 254.373 60.728C254.373 49.9036 260.935 42.6302 270.7 42.6302C280.397 42.6302 286.912 49.9036 286.912 60.728C286.912 71.552 280.397 78.8244 270.7 78.8244ZM270.7 28.9895C251.624 28.9895 237.779 42.3374 237.779 60.728C237.779 79.1187 251.624 92.465 270.7 92.465C289.711 92.465 303.508 79.1187 303.508 60.728C303.508 42.3374 289.711 28.9895 270.7 28.9895Z" fill="white"/>
<path d="M232.815 66.8791C232.815 48.7072 216.593 44.827 203.56 41.7083C194.785 39.5494 187.212 37.6848 187.212 31.4088C187.212 25.7411 191.939 22.2203 199.547 22.2203C207.944 22.2203 216.153 25.4207 222.196 31.0275L230.815 19.0822C223.048 11.7359 212.932 8.01202 200.737 8.01202C183.395 8.01202 171.281 18.0979 171.281 32.5379C171.281 50.4312 187.14 54.2551 199.883 57.328L200.417 57.4572C209.816 59.7707 217.003 62.0703 217.003 68.7594C217.003 73.6067 212.472 78.8255 202.524 78.8255C189.861 78.8255 181.501 72.2723 177.361 67.9416L168.851 80.3436C177.059 88.7646 188.103 93.0338 201.691 93.0338C221.179 93.0338 232.815 83.2567 232.815 66.8791Z" fill="white"/>
<path d="M340.862 43.4494C346.692 43.4494 353.643 46.1431 353.643 58.9739V91.5302H369.646V56.1655C369.646 38.8947 360.855 28.9895 345.53 28.9895C337.615 28.9895 330.768 31.8583 326.252 37.0666L325.082 38.4155V29.926H309.855V91.5302H325.859V61.078C325.859 50.0406 331.467 43.4494 340.862 43.4494Z" fill="white"/>
<path d="M599.756 29.9244L585.395 76.7905L569.521 29.9244H551.189L576.133 93.6093L567.819 116.286H585.395L617.709 29.9244H599.756Z" fill="white"/>
</g>
</g>
<defs>
<clipPath id="clip0_431_3395">
<rect width="746.397" height="143" fill="white"/>
</clipPath>
<clipPath id="clip1_431_3395">
<rect width="578" height="143" fill="white" transform="translate(168.397)"/>
</clipPath>
</defs>
</svg>
