<svg width="48" height="48" viewBox="0 0 48 48" fill="none" xmlns="http://www.w3.org/2000/svg">
<mask id="mask0_204_1881" style="mask-type:alpha" maskUnits="userSpaceOnUse" x="0" y="0" width="48" height="48">
<rect width="48" height="48" fill="#D9D9D9"/>
</mask>
<g mask="url(#mask0_204_1881)">
<path d="M24.1213 33.4999C24.4456 33.4999 24.7141 33.3912 24.9269 33.1737C25.1397 32.9563 25.2461 32.6868 25.2461 32.3653V23.1346C25.2461 22.8131 25.1364 22.5436 24.9171 22.3262C24.6978 22.1087 24.426 22 24.1018 22C23.7775 22 23.509 22.1087 23.2962 22.3262C23.0834 22.5436 22.977 22.8131 22.977 23.1346V32.3653C22.977 32.6868 23.0866 32.9563 23.306 33.1737C23.5253 33.3912 23.7971 33.4999 24.1213 33.4999ZM23.9975 18.8C24.3825 18.8 24.7061 18.6732 24.9683 18.4196C25.2304 18.1659 25.3615 17.8516 25.3615 17.4767C25.3615 17.0734 25.2311 16.7393 24.9704 16.4744C24.7096 16.2094 24.3864 16.077 24.0009 16.077C23.6042 16.077 23.2779 16.2104 23.0222 16.4773C22.7664 16.7441 22.6385 17.0747 22.6385 17.4692C22.6385 17.8463 22.7687 18.1623 23.0292 18.4174C23.2897 18.6725 23.6124 18.8 23.9975 18.8ZM24.0167 42.9999C21.3848 42.9999 18.9185 42.5012 16.6178 41.5039C14.317 40.5066 12.3044 39.1447 10.58 37.4184C8.85556 35.692 7.49448 33.6791 6.49671 31.3795C5.49894 29.08 5.00006 26.6161 5.00006 23.9879C5.00006 21.3597 5.49873 18.8921 6.49606 16.5851C7.49339 14.2781 8.85523 12.2694 10.5816 10.559C12.3079 8.84853 14.3209 7.49442 16.6204 6.49665C18.9199 5.49888 21.3838 5 24.0121 5C26.6403 5 29.1079 5.49867 31.4149 6.496C33.7218 7.49333 35.7305 8.84683 37.441 10.5565C39.1514 12.2662 40.5055 14.2767 41.5033 16.588C42.5011 18.8992 43 21.3643 43 23.9833C43 26.6151 42.5013 29.0814 41.504 31.3822C40.5066 33.683 39.1531 35.6925 37.4435 37.4108C35.7338 39.129 33.7233 40.4901 31.412 41.494C29.1008 42.4979 26.6357 42.9999 24.0167 42.9999ZM24.0154 40.7307C28.6615 40.7307 32.609 39.1012 35.8577 35.8423C39.1064 32.5833 40.7308 28.6307 40.7308 23.9846C40.7308 19.3384 39.11 15.391 35.8684 12.1423C32.6268 8.89355 28.6707 7.2692 24 7.2692C19.3641 7.2692 15.4167 8.88998 12.1577 12.1315C8.89875 15.3731 7.26926 19.3293 7.26926 24C7.26926 28.6359 8.89875 32.5833 12.1577 35.8423C15.4167 39.1012 19.3692 40.7307 24.0154 40.7307Z" fill="#1C1B1F"/>
</g>
</svg>
