<svg width="151" height="143" viewBox="0 0 151 143" fill="none" xmlns="http://www.w3.org/2000/svg">
<g clip-path="url(#clip0_631_6981)">
<mask id="mask0_631_6981" style="mask-type:luminance" maskUnits="userSpaceOnUse" x="0" y="0" width="151" height="143">
<path d="M50.8996 2.39038e-06C48.098 2.39038e-06 45.5115 0.368001 42.7636 0.798668C15.3371 5.324 0.396973 26.9024 0.396973 60.0961C0.396973 80.1717 9.12249 114.299 9.12249 114.299H9.12719C9.23291 114.85 9.71416 115.265 10.2939 115.265C10.8907 115.265 11.3793 114.828 11.4678 114.258L22.4902 31.3843C22.4902 31.3827 22.4902 31.38 22.4902 31.38C22.4902 30.6925 23.0459 30.1352 23.7319 30.1352C24.4183 30.1352 24.9746 30.6925 24.9746 31.38C24.9746 31.38 24.9746 31.3827 24.9746 31.3843L32.3355 141.161C32.3355 141.902 32.9366 142.504 33.6792 142.504C34.4224 142.504 35.0224 141.902 35.0224 141.16L46.8142 31.2513H46.8183C46.8839 30.6248 47.4058 30.1352 48.0475 30.1352C48.6704 30.1352 49.1824 30.5961 49.2715 31.1915H49.273L49.2746 31.2108C49.2814 31.2671 49.2918 31.3201 49.2918 31.38C49.2918 31.3931 49.2876 31.4051 49.2876 31.4207L56.0382 141.136C56.0371 141.151 56.0344 141.163 56.0344 141.176C56.0344 141.885 56.6106 142.46 57.3183 142.46C58.0276 142.46 58.6022 141.885 58.6022 141.176L70.4439 31.4087C70.4439 31.3983 70.4412 31.3895 70.4412 31.38C70.4412 30.6925 70.9975 30.1352 71.6834 30.1352C72.3688 30.1352 72.9262 30.6925 72.9262 31.38C72.9262 31.4087 72.9183 31.4389 72.9172 31.4676C73.2762 36.8228 80.2584 141.16 80.2584 141.184C80.2584 141.897 80.836 142.473 81.5475 142.473C82.2584 142.473 82.836 141.897 82.836 141.184C82.836 141.178 93.8918 32.3488 93.9887 31.3947C93.9876 31.3843 93.985 31.3737 93.985 31.3633C93.985 30.6873 94.5303 30.1431 95.2048 30.1431C95.8792 30.1431 96.4276 30.6873 96.4276 31.3633C96.4276 31.3696 96.4251 31.3775 96.4251 31.3843H96.4276L103.757 141.156C103.757 141.165 103.756 141.172 103.756 141.178C103.756 141.897 104.334 142.473 105.046 142.473C105.738 142.473 106.298 141.93 106.332 141.244H106.336L117.418 31.3843H117.421C117.421 31.3775 117.418 31.3696 117.418 31.3633C117.418 30.6873 117.967 30.1431 118.64 30.1431C119.313 30.1431 119.861 30.6873 119.861 31.3633C119.861 31.3696 119.858 31.3775 119.858 31.3843H119.861L126.965 114.686H126.973C126.973 115.007 127.232 115.265 127.553 115.265C127.874 115.265 128.133 115.007 128.133 114.686H128.136C128.136 114.686 132.405 89.3671 135.217 80.3149C139.498 66.5337 150.794 57.7863 150.794 57.7863C129.271 39.5743 124.664 12.018 124.016 2.39038e-06H50.8996Z" fill="white"/>
</mask>
<g mask="url(#mask0_631_6981)">
<path d="M50.8996 2.39038e-06C48.098 2.39038e-06 45.5115 0.368001 42.7636 0.798668C15.3371 5.324 0.396973 26.9024 0.396973 60.0961C0.396973 80.1717 9.12249 114.299 9.12249 114.299H9.12719C9.23291 114.85 9.71416 115.265 10.2939 115.265C10.8907 115.265 11.3793 114.828 11.4678 114.258L22.4902 31.3843C22.4902 31.3827 22.4902 31.38 22.4902 31.38C22.4902 30.6925 23.0459 30.1352 23.7319 30.1352C24.4183 30.1352 24.9746 30.6925 24.9746 31.38C24.9746 31.38 24.9746 31.3827 24.9746 31.3843L32.3355 141.161C32.3355 141.902 32.9366 142.504 33.6792 142.504C34.4224 142.504 35.0224 141.902 35.0224 141.16L46.8142 31.2513H46.8183C46.8839 30.6248 47.4058 30.1352 48.0475 30.1352C48.6704 30.1352 49.1824 30.5961 49.2715 31.1915H49.273L49.2746 31.2108C49.2814 31.2671 49.2918 31.3201 49.2918 31.38C49.2918 31.3931 49.2876 31.4051 49.2876 31.4207L56.0382 141.136C56.0371 141.151 56.0344 141.163 56.0344 141.176C56.0344 141.885 56.6106 142.46 57.3183 142.46C58.0276 142.46 58.6022 141.885 58.6022 141.176L70.4439 31.4087C70.4439 31.3983 70.4412 31.3895 70.4412 31.38C70.4412 30.6925 70.9975 30.1352 71.6834 30.1352C72.3688 30.1352 72.9262 30.6925 72.9262 31.38C72.9262 31.4087 72.9183 31.4389 72.9172 31.4676C73.2762 36.8228 80.2584 141.16 80.2584 141.184C80.2584 141.897 80.836 142.473 81.5475 142.473C82.2584 142.473 82.836 141.897 82.836 141.184C82.836 141.178 93.8918 32.3488 93.9887 31.3947C93.9876 31.3843 93.985 31.3737 93.985 31.3633C93.985 30.6873 94.5303 30.1431 95.2048 30.1431C95.8792 30.1431 96.4276 30.6873 96.4276 31.3633C96.4276 31.3696 96.4251 31.3775 96.4251 31.3843H96.4276L103.757 141.156C103.757 141.165 103.756 141.172 103.756 141.178C103.756 141.897 104.334 142.473 105.046 142.473C105.738 142.473 106.298 141.93 106.332 141.244H106.336L117.418 31.3843H117.421C117.421 31.3775 117.418 31.3696 117.418 31.3633C117.418 30.6873 117.967 30.1431 118.64 30.1431C119.313 30.1431 119.861 30.6873 119.861 31.3633C119.861 31.3696 119.858 31.3775 119.858 31.3843H119.861L126.965 114.686H126.973C126.973 115.007 127.232 115.265 127.553 115.265C127.874 115.265 128.133 115.007 128.133 114.686H128.136C128.136 114.686 132.405 89.3671 135.217 80.3149C139.498 66.5337 150.794 57.7863 150.794 57.7863C129.271 39.5743 124.664 12.018 124.016 2.39038e-06H50.8996Z" fill="url(#paint0_linear_631_6981)"/>
</g>
</g>
<defs>
<linearGradient id="paint0_linear_631_6981" x1="0.396973" y1="71.252" x2="150.794" y2="71.252" gradientUnits="userSpaceOnUse">
<stop stop-color="#5E2590"/>
<stop offset="0.0144578" stop-color="#5E2590"/>
<stop offset="0.593976" stop-color="#3871C1"/>
<stop offset="1" stop-color="#3B8CA6"/>
</linearGradient>
<clipPath id="clip0_631_6981">
<rect width="150.397" height="142.504" fill="white" transform="translate(0.396973)"/>
</clipPath>
</defs>
</svg>
